<?xml version="1.0" standalone="no"?>
<!DOCTYPE svg PUBLIC "-//W3C//DTD SVG 20010904//EN"
 "http://www.w3.org/TR/2001/REC-SVG-20010904/DTD/svg10.dtd">
<svg version="1.0" xmlns="http://www.w3.org/2000/svg"
 width="229.000000pt" height="229.000000pt" viewBox="0 0 229.000000 229.000000"
 preserveAspectRatio="xMidYMid meet">
<metadata>
Created by potrace 1.11, written by Peter Selinger 2001-2013
</metadata>
<g transform="translate(0.000000,229.000000) scale(0.100000,-0.100000)"
fill="#000000" stroke="none">
<path d="M977 2235 c-388 -66 -713 -329 -857 -696 -115 -290 -95 -644 51 -918
204 -383 583 -606 1014 -596 251 5 454 78 665 237 101 77 230 232 299 362 120
227 155 532 90 784 -109 415 -419 715 -845 817 -90 22 -314 27 -417 10z m333
-156 c30 -6 60 -11 65 -13 184 -48 327 -128 456 -256 142 -141 221 -291 264
-495 16 -78 21 -250 10 -310 -43 -230 -124 -393 -270 -540 -178 -180 -405
-277 -655 -279 -186 -2 -297 22 -445 96 -281 140 -470 400 -521 716 -10 59
-11 202 -2 257 4 28 10 64 12 80 10 59 48 161 91 242 136 257 372 435 655 493
94 20 254 24 340 9z"/>
<path d="M1046 1829 c-162 -26 -338 -141 -436 -283 -167 -244 -166 -589 4
-822 94 -130 208 -214 351 -261 67 -22 98 -26 195 -26 98 0 127 4 195 27 285
96 475 363 476 666 1 321 -196 594 -491 682 -72 22 -217 30 -294 17z"/>
<path d="M0 260 l0 -260 267 0 267 0 -262 260 c-144 143 -264 260 -267 260 -3
0 -5 -117 -5 -260z"/>
</g>
</svg>
