<?xml version="1.0" standalone="no"?>
<!DOCTYPE svg PUBLIC "-//W3C//DTD SVG 20010904//EN"
 "http://www.w3.org/TR/2001/REC-SVG-20010904/DTD/svg10.dtd">
<svg version="1.0" xmlns="http://www.w3.org/2000/svg"
 width="512.000000pt" height="512.000000pt" viewBox="0 0 512.000000 512.000000"
 preserveAspectRatio="xMidYMid meet">
<metadata>
Created by potrace 1.11, written by Peter Selinger 2001-2013
</metadata>
<g transform="translate(0.000000,512.000000) scale(0.100000,-0.100000)"
fill="#000000" stroke="none">
<path d="M2409 5106 c-2 -2 -35 -7 -74 -11 -307 -29 -630 -127 -915 -277 -94
-50 -285 -169 -334 -209 -6 -5 -45 -36 -86 -70 -158 -128 -349 -334 -472 -509
-325 -464 -488 -1054 -446 -1615 7 -84 31 -265 43 -324 88 -413 248 -754 508
-1081 87 -109 307 -325 417 -408 52 -40 100 -76 105 -80 6 -4 51 -33 100 -64
328 -205 665 -323 1065 -372 115 -14 455 -15 550 -2 25 4 61 9 80 11 885 121
1659 728 1990 1560 69 174 123 370 149 540 6 39 13 86 16 105 4 19 8 132 9
250 6 431 -67 769 -247 1140 -87 180 -226 393 -353 540 -56 65 -232 239 -283
280 -24 19 -48 40 -55 45 -27 25 -136 105 -201 146 -164 107 -339 194 -520
258 -49 18 -101 36 -115 41 -36 13 -229 61 -265 66 -16 2 -41 6 -55 9 -14 3
-47 8 -75 11 -27 3 -61 8 -75 11 -29 6 -455 15 -461 9z m416 -638 c6 -3 36 -9
68 -12 33 -4 103 -18 157 -32 764 -189 1335 -836 1427 -1617 17 -141 9 -405
-17 -547 -15 -82 -17 -90 -34 -158 -97 -371 -334 -733 -641 -981 -74 -60 -186
-137 -245 -170 -53 -29 -200 -101 -206 -101 -3 0 -20 -6 -37 -14 -102 -45
-250 -85 -407 -112 -111 -19 -403 -25 -509 -11 -91 12 -184 28 -191 32 -4 2
-21 7 -39 10 -52 9 -216 64 -303 101 -288 123 -576 351 -766 606 -40 53 -72
99 -72 102 0 3 -14 25 -31 50 -46 70 -143 280 -177 386 -40 125 -66 240 -77
340 -3 25 -8 61 -11 80 -6 48 -6 260 1 345 5 58 15 127 40 256 8 39 49 171 77
244 169 446 516 822 949 1028 93 45 212 91 279 109 19 5 51 13 70 19 62 17
183 39 245 45 33 3 61 7 63 9 6 6 378 -1 387 -7z"/>
<path d="M2445 3840 c-11 -4 -23 -6 -27 -3 -14 8 -221 -49 -299 -82 -473 -199
-775 -643 -781 -1147 -1 -123 8 -202 38 -323 120 -482 510 -845 1003 -934 131
-24 345 -22 466 3 330 71 617 263 803 538 90 132 169 337 196 503 13 82 15
308 3 375 -66 387 -269 695 -588 893 -125 77 -315 149 -454 172 -60 10 -337
14 -360 5z"/>
<path d="M0 634 l0 -630 610 0 c336 0 610 1 610 3 0 1 -35 21 -77 43 -88 44
-156 82 -163 91 -3 3 -23 16 -45 29 -176 105 -437 342 -590 535 -72 91 -195
268 -195 281 0 4 -6 15 -14 23 -8 9 -41 70 -75 136 l-61 120 0 -631z"/>
</g>
</svg>
